<mxfile host="65bd71144e">
    <diagram id="C5RBs43oDa-KdzZeNtuy" name="Page-1">
        <mxGraphModel dx="2095" dy="580" grid="0" gridSize="10" guides="1" tooltips="1" connect="1" arrows="1" fold="1" page="0" pageScale="1" pageWidth="827" pageHeight="1169" math="0" shadow="0">
            <root>
                <mxCell id="WIyWlLk6GJQsqaUBKTNV-0"/>
                <mxCell id="WIyWlLk6GJQsqaUBKTNV-1" parent="WIyWlLk6GJQsqaUBKTNV-0"/>
                <mxCell id="WIyWlLk6GJQsqaUBKTNV-2" value="" style="rounded=1;html=1;jettySize=auto;orthogonalLoop=1;fontSize=11;endArrow=block;endFill=0;endSize=8;strokeWidth=1;shadow=0;labelBackgroundColor=none;edgeStyle=orthogonalEdgeStyle;entryX=0.5;entryY=0;entryDx=0;entryDy=0;sketch=1;" parent="WIyWlLk6GJQsqaUBKTNV-1" source="WIyWlLk6GJQsqaUBKTNV-3" target="q1tHA1bNDOKwL00INlb--2" edge="1">
                    <mxGeometry relative="1" as="geometry">
                        <mxPoint x="482" y="175.0000000000001" as="targetPoint"/>
                        <Array as="points">
                            <mxPoint x="382" y="155"/>
                            <mxPoint x="512" y="155"/>
                            <mxPoint x="512" y="175"/>
                        </Array>
                    </mxGeometry>
                </mxCell>
                <mxCell id="WIyWlLk6GJQsqaUBKTNV-3" value="input" style="rounded=1;whiteSpace=wrap;html=1;fontSize=12;glass=0;strokeWidth=1;shadow=0;sketch=1;" parent="WIyWlLk6GJQsqaUBKTNV-1" vertex="1">
                    <mxGeometry x="320" y="90" width="120" height="40" as="geometry"/>
                </mxCell>
                <mxCell id="q1tHA1bNDOKwL00INlb--0" value="&lt;font style=&quot;font-size: 10px;&quot;&gt;(echo &quot;this is the input&quot; | ( grep input || (echo hola | cat -e &amp;lt; infile.txt) &amp;amp;&amp;amp; cat -n &amp;amp;&amp;amp; wc -l ) | echo fin) &amp;gt; outpfile.txt&lt;/font&gt;" style="text;html=1;align=center;verticalAlign=middle;resizable=0;points=[];autosize=1;fillColor=#616161;strokeColor=none;fontColor=#FFFFFF;fontFamily=Courier New;fontSize=10;sketch=1;rounded=1;" parent="WIyWlLk6GJQsqaUBKTNV-1" vertex="1">
                    <mxGeometry x="29" y="45" width="770" height="30" as="geometry"/>
                </mxCell>
                <mxCell id="q1tHA1bNDOKwL00INlb--4" value="" style="edgeStyle=orthogonalEdgeStyle;rounded=1;orthogonalLoop=1;jettySize=auto;html=1;fontFamily=Courier New;fontSize=11;fontColor=#0F0F0F;entryX=0.5;entryY=0;entryDx=0;entryDy=0;sketch=1;" parent="WIyWlLk6GJQsqaUBKTNV-1" source="q1tHA1bNDOKwL00INlb--2" target="q1tHA1bNDOKwL00INlb--3" edge="1">
                    <mxGeometry relative="1" as="geometry"/>
                </mxCell>
                <mxCell id="q1tHA1bNDOKwL00INlb--6" value="" style="edgeStyle=orthogonalEdgeStyle;rounded=1;orthogonalLoop=1;jettySize=auto;html=1;fontFamily=Courier New;fontSize=11;fontColor=#0F0F0F;sketch=1;" parent="WIyWlLk6GJQsqaUBKTNV-1" source="q1tHA1bNDOKwL00INlb--2" target="q1tHA1bNDOKwL00INlb--5" edge="1">
                    <mxGeometry relative="1" as="geometry"/>
                </mxCell>
                <mxCell id="q1tHA1bNDOKwL00INlb--2" value="&lt;font style=&quot;font-size: 20px;&quot;&gt;&lt;b style=&quot;font-size: 20px;&quot;&gt;( )&lt;/b&gt;&lt;/font&gt;" style="ellipse;whiteSpace=wrap;html=1;aspect=fixed;strokeColor=#006EAF;fontFamily=Courier New;fontSize=20;fontColor=#CCFFFF;fillColor=#1ba1e2;sketch=1;rounded=1;" parent="WIyWlLk6GJQsqaUBKTNV-1" vertex="1">
                    <mxGeometry x="472" y="175" width="80" height="80" as="geometry"/>
                </mxCell>
                <mxCell id="q1tHA1bNDOKwL00INlb--13" value="" style="edgeStyle=orthogonalEdgeStyle;rounded=1;orthogonalLoop=1;jettySize=auto;html=1;fontFamily=Courier New;fontSize=11;fontColor=#191919;sketch=1;" parent="WIyWlLk6GJQsqaUBKTNV-1" source="q1tHA1bNDOKwL00INlb--3" target="q1tHA1bNDOKwL00INlb--12" edge="1">
                    <mxGeometry relative="1" as="geometry">
                        <Array as="points">
                            <mxPoint x="522" y="280"/>
                        </Array>
                    </mxGeometry>
                </mxCell>
                <mxCell id="q1tHA1bNDOKwL00INlb--56" style="edgeStyle=orthogonalEdgeStyle;rounded=1;orthogonalLoop=1;jettySize=auto;html=1;exitX=0;exitY=0.5;exitDx=0;exitDy=0;fontFamily=Courier New;fontSize=12;fontColor=#191919;sketch=1;" parent="WIyWlLk6GJQsqaUBKTNV-1" source="q1tHA1bNDOKwL00INlb--3" target="17" edge="1">
                    <mxGeometry relative="1" as="geometry">
                        <Array as="points">
                            <mxPoint x="280" y="280"/>
                            <mxPoint x="180" y="280"/>
                        </Array>
                        <mxPoint x="148" y="415" as="targetPoint"/>
                    </mxGeometry>
                </mxCell>
                <mxCell id="q1tHA1bNDOKwL00INlb--3" value="&lt;font style=&quot;font-size: 20px;&quot;&gt;&lt;b style=&quot;font-size: 20px;&quot;&gt;|&lt;/b&gt;&lt;/font&gt;" style="ellipse;whiteSpace=wrap;html=1;aspect=fixed;strokeColor=#B09500;fontFamily=Courier New;fontSize=20;fontColor=#CCFFFF;fillColor=#e3c800;sketch=1;rounded=1;" parent="WIyWlLk6GJQsqaUBKTNV-1" vertex="1">
                    <mxGeometry x="280" y="250" width="80" height="80" as="geometry"/>
                </mxCell>
                <mxCell id="q1tHA1bNDOKwL00INlb--5" value="&lt;font&gt;&lt;span style=&quot;font-size: 12px;&quot;&gt;- &amp;gt;&lt;br&gt;- outpfile.txt&lt;br&gt;&lt;/span&gt;&lt;/font&gt;" style="whiteSpace=wrap;html=1;fontSize=11;fontFamily=Courier New;fillColor=none;fontColor=#99004D;align=left;spacingTop=0;spacing=6;spacingLeft=8;sketch=1;rounded=1;" parent="WIyWlLk6GJQsqaUBKTNV-1" vertex="1">
                    <mxGeometry x="592" y="190" width="128" height="50" as="geometry"/>
                </mxCell>
                <mxCell id="q1tHA1bNDOKwL00INlb--16" value="" style="edgeStyle=orthogonalEdgeStyle;rounded=1;orthogonalLoop=1;jettySize=auto;html=1;fontFamily=Courier New;fontSize=11;fontColor=#191919;sketch=1;" parent="WIyWlLk6GJQsqaUBKTNV-1" source="q1tHA1bNDOKwL00INlb--12" target="q1tHA1bNDOKwL00INlb--15" edge="1">
                    <mxGeometry relative="1" as="geometry"/>
                </mxCell>
                <mxCell id="q1tHA1bNDOKwL00INlb--18" value="" style="edgeStyle=orthogonalEdgeStyle;rounded=1;orthogonalLoop=1;jettySize=auto;html=1;fontFamily=Courier New;fontSize=11;fontColor=#191919;sketch=1;" parent="WIyWlLk6GJQsqaUBKTNV-1" source="q1tHA1bNDOKwL00INlb--12" target="q1tHA1bNDOKwL00INlb--17" edge="1">
                    <mxGeometry relative="1" as="geometry"/>
                </mxCell>
                <mxCell id="q1tHA1bNDOKwL00INlb--12" value="&lt;font color=&quot;#0f0f0f&quot;&gt;&lt;b&gt;|&lt;/b&gt;&lt;/font&gt;" style="ellipse;whiteSpace=wrap;html=1;aspect=fixed;strokeColor=default;fontFamily=Courier New;fontSize=11;fontColor=#FFFFFF;fillColor=none;sketch=1;rounded=1;" parent="WIyWlLk6GJQsqaUBKTNV-1" vertex="1">
                    <mxGeometry x="480" y="340" width="80" height="80" as="geometry"/>
                </mxCell>
                <mxCell id="q1tHA1bNDOKwL00INlb--24" value="" style="edgeStyle=orthogonalEdgeStyle;rounded=1;orthogonalLoop=1;jettySize=auto;html=1;fontFamily=Courier New;fontSize=11;fontColor=#191919;sketch=1;" parent="WIyWlLk6GJQsqaUBKTNV-1" source="q1tHA1bNDOKwL00INlb--15" target="q1tHA1bNDOKwL00INlb--23" edge="1">
                    <mxGeometry relative="1" as="geometry"/>
                </mxCell>
                <mxCell id="q1tHA1bNDOKwL00INlb--15" value="&lt;font style=&quot;font-size: 19px;&quot;&gt;&lt;b style=&quot;font-size: 19px;&quot;&gt;( )&lt;/b&gt;&lt;/font&gt;" style="ellipse;whiteSpace=wrap;html=1;aspect=fixed;strokeColor=#006EAF;fontFamily=Courier New;fontSize=19;fontColor=#CCFFFF;fillColor=#1ba1e2;sketch=1;rounded=1;" parent="WIyWlLk6GJQsqaUBKTNV-1" vertex="1">
                    <mxGeometry x="392" y="425" width="80" height="80" as="geometry"/>
                </mxCell>
                <mxCell id="q1tHA1bNDOKwL00INlb--17" value="&lt;font color=&quot;#0f0f0f&quot;&gt;echo fin&lt;/font&gt;" style="ellipse;whiteSpace=wrap;html=1;aspect=fixed;strokeColor=default;fontFamily=Courier New;fontSize=11;fontColor=#FFFFFF;fillColor=none;sketch=1;rounded=1;" parent="WIyWlLk6GJQsqaUBKTNV-1" vertex="1">
                    <mxGeometry x="640" y="460" width="80" height="80" as="geometry"/>
                </mxCell>
                <mxCell id="q1tHA1bNDOKwL00INlb--26" value="" style="edgeStyle=orthogonalEdgeStyle;rounded=1;orthogonalLoop=1;jettySize=auto;html=1;fontFamily=Courier New;fontSize=10;fontColor=#191919;sketch=1;" parent="WIyWlLk6GJQsqaUBKTNV-1" source="q1tHA1bNDOKwL00INlb--23" target="q1tHA1bNDOKwL00INlb--25" edge="1">
                    <mxGeometry relative="1" as="geometry"/>
                </mxCell>
                <mxCell id="q1tHA1bNDOKwL00INlb--30" value="" style="edgeStyle=orthogonalEdgeStyle;rounded=1;orthogonalLoop=1;jettySize=auto;html=1;fontFamily=Courier New;fontSize=12;fontColor=#191919;sketch=1;entryX=0.458;entryY=0.067;entryDx=0;entryDy=0;entryPerimeter=0;" parent="WIyWlLk6GJQsqaUBKTNV-1" source="q1tHA1bNDOKwL00INlb--23" target="1" edge="1">
                    <mxGeometry relative="1" as="geometry">
                        <mxPoint x="290" y="673" as="targetPoint"/>
                    </mxGeometry>
                </mxCell>
                <mxCell id="q1tHA1bNDOKwL00INlb--23" value="&lt;b style=&quot;border-color: var(--border-color); font-size: 22px;&quot;&gt;||&lt;/b&gt;&lt;font style=&quot;font-size: 22px;&quot;&gt;&lt;br style=&quot;font-size: 22px;&quot;&gt;&lt;/font&gt;" style="ellipse;whiteSpace=wrap;html=1;aspect=fixed;strokeColor=#6F0000;fontFamily=Courier New;fontSize=22;fillColor=#a20025;sketch=1;rounded=1;fontColor=#CCFFFF;" parent="WIyWlLk6GJQsqaUBKTNV-1" vertex="1">
                    <mxGeometry x="374" y="566" width="80" height="80" as="geometry"/>
                </mxCell>
                <mxCell id="q1tHA1bNDOKwL00INlb--44" value="" style="edgeStyle=orthogonalEdgeStyle;rounded=1;orthogonalLoop=1;jettySize=auto;html=1;fontFamily=Courier New;fontSize=12;fontColor=#191919;sketch=1;" parent="WIyWlLk6GJQsqaUBKTNV-1" source="q1tHA1bNDOKwL00INlb--25" target="q1tHA1bNDOKwL00INlb--43" edge="1">
                    <mxGeometry relative="1" as="geometry"/>
                </mxCell>
                <mxCell id="q1tHA1bNDOKwL00INlb--48" style="edgeStyle=orthogonalEdgeStyle;rounded=1;orthogonalLoop=1;jettySize=auto;html=1;exitX=1;exitY=0.5;exitDx=0;exitDy=0;entryX=0.5;entryY=0;entryDx=0;entryDy=0;fontFamily=Courier New;fontSize=12;fontColor=#191919;sketch=1;" parent="WIyWlLk6GJQsqaUBKTNV-1" source="q1tHA1bNDOKwL00INlb--25" target="q1tHA1bNDOKwL00INlb--47" edge="1">
                    <mxGeometry relative="1" as="geometry"/>
                </mxCell>
                <mxCell id="q1tHA1bNDOKwL00INlb--25" value="&lt;span style=&quot;border-color: var(--border-color); font-size: 28px;&quot;&gt;&lt;font style=&quot;font-size: 28px;&quot;&gt;&amp;amp;&amp;amp;&lt;/font&gt;&lt;/span&gt;&lt;font style=&quot;font-size: 28px;&quot;&gt;&lt;br style=&quot;font-size: 28px;&quot;&gt;&lt;/font&gt;" style="ellipse;whiteSpace=wrap;html=1;aspect=fixed;strokeColor=#6F0000;fontFamily=Courier New;fontSize=28;fillColor=#a20025;sketch=1;rounded=1;fillStyle=hachure;fontColor=#CCFFFF;fontStyle=0" parent="WIyWlLk6GJQsqaUBKTNV-1" vertex="1">
                    <mxGeometry x="520" y="675" width="80" height="80" as="geometry"/>
                </mxCell>
                <mxCell id="q1tHA1bNDOKwL00INlb--36" value="" style="edgeStyle=orthogonalEdgeStyle;rounded=1;orthogonalLoop=1;jettySize=auto;html=1;fontFamily=Courier New;fontSize=12;fontColor=#191919;sketch=1;exitX=0;exitY=0.5;exitDx=0;exitDy=0;" parent="WIyWlLk6GJQsqaUBKTNV-1" source="q1tHA1bNDOKwL00INlb--31" target="q1tHA1bNDOKwL00INlb--35" edge="1">
                    <mxGeometry relative="1" as="geometry">
                        <mxPoint x="153" y="872" as="sourcePoint"/>
                    </mxGeometry>
                </mxCell>
                <mxCell id="q1tHA1bNDOKwL00INlb--31" value="&lt;b style=&quot;border-color: var(--border-color); color: rgb(15, 15, 15);&quot;&gt;( )&lt;/b&gt;&lt;font color=&quot;#0f0f0f&quot;&gt;&lt;br&gt;&lt;/font&gt;" style="ellipse;whiteSpace=wrap;html=1;aspect=fixed;strokeColor=default;fontFamily=Courier New;fontSize=11;fontColor=#FFFFFF;fillColor=none;sketch=1;rounded=1;" parent="WIyWlLk6GJQsqaUBKTNV-1" vertex="1">
                    <mxGeometry x="168" y="805" width="81" height="81" as="geometry"/>
                </mxCell>
                <mxCell id="q1tHA1bNDOKwL00INlb--38" value="" style="edgeStyle=orthogonalEdgeStyle;rounded=1;orthogonalLoop=1;jettySize=auto;html=1;fontFamily=Courier New;fontSize=12;fontColor=#191919;sketch=1;" parent="WIyWlLk6GJQsqaUBKTNV-1" source="q1tHA1bNDOKwL00INlb--35" target="q1tHA1bNDOKwL00INlb--37" edge="1">
                    <mxGeometry relative="1" as="geometry">
                        <Array as="points">
                            <mxPoint x="3" y="933"/>
                        </Array>
                    </mxGeometry>
                </mxCell>
                <mxCell id="q1tHA1bNDOKwL00INlb--40" value="" style="edgeStyle=orthogonalEdgeStyle;rounded=1;orthogonalLoop=1;jettySize=auto;html=1;fontFamily=Courier New;fontSize=12;fontColor=#191919;sketch=1;" parent="WIyWlLk6GJQsqaUBKTNV-1" source="q1tHA1bNDOKwL00INlb--35" target="q1tHA1bNDOKwL00INlb--39" edge="1">
                    <mxGeometry relative="1" as="geometry">
                        <Array as="points">
                            <mxPoint x="143" y="933"/>
                        </Array>
                    </mxGeometry>
                </mxCell>
                <mxCell id="q1tHA1bNDOKwL00INlb--35" value="&lt;b style=&quot;border-color: var(--border-color); color: rgb(15, 15, 15);&quot;&gt;|&lt;/b&gt;&lt;font color=&quot;#0f0f0f&quot;&gt;&lt;br&gt;&lt;/font&gt;" style="ellipse;whiteSpace=wrap;html=1;aspect=fixed;strokeColor=default;fontFamily=Courier New;fontSize=11;fontColor=#FFFFFF;fillColor=none;sketch=1;rounded=1;" parent="WIyWlLk6GJQsqaUBKTNV-1" vertex="1">
                    <mxGeometry x="34" y="893" width="80" height="80" as="geometry"/>
                </mxCell>
                <mxCell id="q1tHA1bNDOKwL00INlb--37" value="&lt;font color=&quot;#0f0f0f&quot;&gt;echo hola&lt;br&gt;&lt;/font&gt;" style="ellipse;whiteSpace=wrap;html=1;aspect=fixed;strokeColor=default;fontFamily=Courier New;fontSize=11;fontColor=#FFFFFF;fillColor=none;sketch=1;rounded=1;" parent="WIyWlLk6GJQsqaUBKTNV-1" vertex="1">
                    <mxGeometry x="-37" y="1003" width="80" height="80" as="geometry"/>
                </mxCell>
                <mxCell id="q1tHA1bNDOKwL00INlb--42" style="edgeStyle=orthogonalEdgeStyle;rounded=1;orthogonalLoop=1;jettySize=auto;html=1;exitX=1;exitY=0.5;exitDx=0;exitDy=0;entryX=0;entryY=0.5;entryDx=0;entryDy=0;fontFamily=Courier New;fontSize=12;fontColor=#191919;sketch=1;" parent="WIyWlLk6GJQsqaUBKTNV-1" source="q1tHA1bNDOKwL00INlb--39" edge="1" target="q1tHA1bNDOKwL00INlb--58">
                    <mxGeometry relative="1" as="geometry">
                        <mxPoint x="204" y="1043" as="targetPoint"/>
                    </mxGeometry>
                </mxCell>
                <mxCell id="q1tHA1bNDOKwL00INlb--39" value="&lt;span style=&quot;border-color: var(--border-color); color: rgb(15, 15, 15);&quot;&gt;cat - e&lt;/span&gt;&lt;font color=&quot;#0f0f0f&quot;&gt;&lt;br&gt;&lt;/font&gt;" style="ellipse;whiteSpace=wrap;html=1;aspect=fixed;strokeColor=default;fontFamily=Courier New;fontSize=11;fontColor=#FFFFFF;fillColor=none;sketch=1;rounded=1;" parent="WIyWlLk6GJQsqaUBKTNV-1" vertex="1">
                    <mxGeometry x="103" y="1003" width="80" height="80" as="geometry"/>
                </mxCell>
                <mxCell id="q1tHA1bNDOKwL00INlb--46" value="" style="edgeStyle=orthogonalEdgeStyle;rounded=1;orthogonalLoop=1;jettySize=auto;html=1;fontFamily=Courier New;fontSize=12;fontColor=#191919;sketch=1;" parent="WIyWlLk6GJQsqaUBKTNV-1" source="q1tHA1bNDOKwL00INlb--43" target="q1tHA1bNDOKwL00INlb--45" edge="1">
                    <mxGeometry relative="1" as="geometry"/>
                </mxCell>
                <mxCell id="q1tHA1bNDOKwL00INlb--43" value="&lt;span style=&quot;color: rgb(15, 15, 15);&quot;&gt;cat - n&lt;/span&gt;&lt;font color=&quot;#0f0f0f&quot;&gt;&lt;br&gt;&lt;/font&gt;" style="ellipse;whiteSpace=wrap;html=1;aspect=fixed;strokeColor=default;fontFamily=Courier New;fontSize=11;fontColor=#FFFFFF;fillColor=none;sketch=1;rounded=1;" parent="WIyWlLk6GJQsqaUBKTNV-1" vertex="1">
                    <mxGeometry x="432" y="770" width="80" height="80" as="geometry"/>
                </mxCell>
                <mxCell id="q1tHA1bNDOKwL00INlb--45" value="&lt;span style=&quot;color: rgb(15, 15, 15);&quot;&gt;wc- l&lt;/span&gt;&lt;font color=&quot;#0f0f0f&quot;&gt;&lt;br&gt;&lt;/font&gt;" style="ellipse;whiteSpace=wrap;html=1;aspect=fixed;strokeColor=default;fontFamily=Courier New;fontSize=11;fontColor=#FFFFFF;fillColor=none;sketch=1;rounded=1;" parent="WIyWlLk6GJQsqaUBKTNV-1" vertex="1">
                    <mxGeometry x="432" y="900" width="80" height="80" as="geometry"/>
                </mxCell>
                <mxCell id="q1tHA1bNDOKwL00INlb--47" value="&lt;span style=&quot;color: rgb(15, 15, 15);&quot;&gt;NULL&lt;/span&gt;&lt;font color=&quot;#0f0f0f&quot;&gt;&lt;br&gt;&lt;/font&gt;" style="ellipse;whiteSpace=wrap;html=1;aspect=fixed;strokeColor=default;fontFamily=Courier New;fontSize=11;fontColor=#FFFFFF;fillColor=none;sketch=1;rounded=1;" parent="WIyWlLk6GJQsqaUBKTNV-1" vertex="1">
                    <mxGeometry x="630" y="760" width="80" height="80" as="geometry"/>
                </mxCell>
                <mxCell id="q1tHA1bNDOKwL00INlb--58" value="&lt;font&gt;&lt;span style=&quot;font-size: 12px;&quot;&gt;- &amp;lt;&lt;br&gt;- infile.txt&lt;br&gt;&lt;/span&gt;&lt;/font&gt;" style="whiteSpace=wrap;html=1;fontSize=11;fontFamily=Courier New;fillColor=none;fontColor=#99004D;align=left;spacingTop=0;spacing=6;spacingLeft=8;sketch=1;rounded=1;" parent="WIyWlLk6GJQsqaUBKTNV-1" vertex="1">
                    <mxGeometry x="256" y="1019.5" width="128" height="47" as="geometry"/>
                </mxCell>
                <mxCell id="1" value="&lt;span style=&quot;color: rgb(204 , 255 , 255)&quot;&gt;grep input&lt;/span&gt;" style="rounded=1;whiteSpace=wrap;html=1;sketch=1;fontFamily=Courier New;fontSize=18;fontColor=#ffffff;strokeColor=#2D7600;fillColor=#60a917;" vertex="1" parent="WIyWlLk6GJQsqaUBKTNV-1">
                    <mxGeometry x="134" y="672" width="166" height="60" as="geometry"/>
                </mxCell>
                <mxCell id="13" value="" style="endArrow=classic;html=1;rounded=1;sketch=1;fontFamily=Courier New;fontSize=18;fontColor=#CCFFFF;exitX=0.447;exitY=0.998;exitDx=0;exitDy=0;exitPerimeter=0;entryX=0.5;entryY=0;entryDx=0;entryDy=0;" edge="1" parent="WIyWlLk6GJQsqaUBKTNV-1" source="1" target="q1tHA1bNDOKwL00INlb--31">
                    <mxGeometry relative="1" as="geometry">
                        <mxPoint x="207" y="739" as="sourcePoint"/>
                        <mxPoint x="402" y="858" as="targetPoint"/>
                    </mxGeometry>
                </mxCell>
                <mxCell id="15" style="edgeStyle=none;rounded=1;sketch=1;html=1;exitX=1;exitY=1;exitDx=0;exitDy=0;fontFamily=Courier New;fontSize=18;fontColor=#CCFFFF;" edge="1" parent="WIyWlLk6GJQsqaUBKTNV-1" source="q1tHA1bNDOKwL00INlb--31" target="q1tHA1bNDOKwL00INlb--31">
                    <mxGeometry relative="1" as="geometry"/>
                </mxCell>
                <mxCell id="17" value="&lt;span style=&quot;font-size: 19px;&quot;&gt;echo&amp;nbsp;&lt;/span&gt;&lt;br style=&quot;font-size: 19px;&quot;&gt;&lt;span style=&quot;font-size: 19px;&quot;&gt;&quot;this is the input&quot;&lt;/span&gt;" style="rounded=1;whiteSpace=wrap;html=1;sketch=1;fontFamily=Courier New;fontSize=19;fontColor=#CCFFFF;strokeColor=#2D7600;fillColor=#60a917;" vertex="1" parent="WIyWlLk6GJQsqaUBKTNV-1">
                    <mxGeometry x="64" y="374" width="246" height="60" as="geometry"/>
                </mxCell>
            </root>
        </mxGraphModel>
    </diagram>
</mxfile>